# xmcd CD database file
#
# Track frame offsets:
#	150
#	19621
#	39104
#	59353
#	77003
#	91020
#	106828
#	122801
#	145484
#	158059
#	181879
#	196213
#
# Disc length: 2867 seconds
#
# Revision: 0
# Processed by: cddbd v1.5.2PL0 Copyright (c) Steve Scherf et al.
# Submitted via: CDex 1.70beta2
#
DISCID=8c0b310c
DTITLE=Lori Paul - Now Or Never
DYEAR=1998
DGENRE=Jazz
TTITLE0=St. Jude's Blues
TTITLE1=Waiting In Vain
TTITLE2=Reason To Cry
TTITLE3=Please Send Me Someone To Love
TTITLE4=Most Gentlemen Don't Like Love
TTITLE5=Crazy He Calls Me
TTITLE6=Now or Never
TTITLE7=Buffalo Plains
TTITLE8=How About You
TTITLE9=Baby Done Bit Me
TTITLE10=At Last
TTITLE11=St. Jude's Blue (instrumental)
EXTD=YEAR: 1998
EXTT0=
EXTT1=
EXTT2=
EXTT3=
EXTT4=
EXTT5=
EXTT6=
EXTT7=
EXTT8=
EXTT9=
EXTT10=
EXTT11=
PLAYORDER=
